<?xml version="1.0" encoding="UTF-8"?>
<svg width="24px" height="24px" viewBox="0 0 24 24" version="1.1" xmlns="http://www.w3.org/2000/svg" xmlns:xlink="http://www.w3.org/1999/xlink">
    <!-- Generator: Sketch 63.1 (92452) - https://sketch.com -->
    <title>05 图标/格式图标/日历</title>
    <desc>Created with Sketch.</desc>
    <g id="05-图标/格式图标/日历" stroke="none" stroke-width="1" fill="none" fill-rule="evenodd">
        <g id="icon-calendar.ed3f9a4a-(1)" transform="translate(0.000000, 11.000000)">
            <g id="icon_白底" transform="translate(0.049728, 0.248640)">
                <g id="编组" transform="translate(0.074592, 0.223776)"></g>
            </g>
        </g>
        <g id="编组-2" transform="translate(0.000000, 2.000000)" fill-rule="nonzero">
            <path d="M1.88819876,0 L22.1118013,0 C22.5900622,0 22.9658385,0.360655739 22.9658385,0.819672135 L23,10 L1,10 L1.03416149,0.819672135 C1.03416149,0.360655739 1.40993789,0 1.88819876,0 Z" id="路径" fill="#2E68F8"></path>
            <path d="M1.85611117,21 L22.1460465,21 C22.6242605,21 23,20.6393443 23,20.1803279 C23,20.1803279 23,20.147541 23,20.147541 L22.6242605,11 L1.37789721,11 L1.00215766,20.147541 C0.967999519,20.6065574 1.34373907,21 1.82195303,21 C1.82195303,21 1.85611117,21 1.85611117,21 Z" id="路径" fill="#2E68F8" opacity="0.7329"></path>
            <path d="M0.874304784,20 L23.1345174,20 C23.6191877,20 24,19.5925926 24,19.0740741 C24,19.0370371 24,19 24,18.962963 L23.1345174,11 L0.874304784,11 L0.00882217563,19 C-0.0604164328,19.5185185 0.285776609,19.962963 0.770446868,20 C0.805066173,20 0.839685478,20 0.874304784,20 Z" id="路径" fill="#2E68F8" opacity="0.8006"></path>
            <path d="M7.8010888,12.327584 C7.833412,12.6184931 7.89805846,12.8447557 7.96270493,12.9740486 C8.1889676,13.4588971 8.6414928,13.717483 9.28795746,13.717483 C9.67583626,13.717483 10.0313918,13.58819 10.3223009,13.3296042 C10.61321,13.0710184 10.7425029,12.6831396 10.7425029,12.1659678 C10.7425029,11.48718 10.4839171,11.0346547 9.93442213,10.8407153 C9.77280593,10.7760688 9.4172504,10.7114224 8.86775546,10.6790992 C8.6414928,10.6790992 8.47987666,10.4851598 8.47987666,10.2588971 L8.47987666,9.58010924 C8.47987666,9.35384664 8.6414928,9.19223044 8.86775546,9.15990724 C9.38492713,9.12758397 9.70815946,9.0629375 9.8374524,8.9982911 C10.2899777,8.8043517 10.4839171,8.4164729 10.4839171,7.8023315 C10.4839171,7.4144527 10.3869473,7.09122037 10.1606847,6.86495777 C9.93442213,6.6386951 9.6111898,6.50940217 9.223311,6.50940217 C8.77078573,6.50940217 8.4152302,6.67101837 8.1889676,6.96192744 C8.05967466,7.12354357 7.9950282,7.4144527 7.93038173,7.8023315 C7.86573526,7.99627084 7.67179586,8.15788704 7.47785646,8.15788704 L6.47583626,8.15788704 C6.2495736,8.15788704 6.05563426,7.96394764 6.05563426,7.73768504 C6.05563426,7.73768504 6.05563426,7.70536177 6.05563426,7.70536177 C6.08795746,7.28515977 6.15260393,6.92960417 6.2495736,6.70334157 C6.4111898,6.31546277 6.66977566,5.92758397 7.0253312,5.6043517 C7.28391706,5.37808904 7.6071494,5.18414964 7.96270493,5.0548567 C8.31826046,4.92556377 8.77078573,4.8609173 9.28795746,4.8609173 C10.2576545,4.8609173 11.033412,5.11950317 11.6152302,5.6043517 C12.1970484,6.12152337 12.4879575,6.76798804 12.4879575,7.6407153 C12.4879575,8.2548567 12.3263413,8.73970524 11.9707857,9.15990724 C11.7445231,9.4184931 11.5182605,9.58010924 11.2596747,9.67707897 C11.453614,9.67707897 11.7121999,9.8386951 12.0354322,10.1619274 C12.5526039,10.6467759 12.7788665,11.2932406 12.7788665,12.1013214 C12.7788665,12.9740486 12.4879575,13.717483 11.9061393,14.3639476 C11.3243211,15.0104123 10.4515938,15.3336446 9.28795746,15.3336446 C7.86573526,15.3336446 6.86371506,14.8487961 6.31422006,13.9114224 C6.15260393,13.6205133 6.05563426,13.1033416 6.05563426,12.3599072 L6.05563426,12.3599072 C6.05563426,12.1336446 6.2172504,11.9397052 6.443513,11.9397052 C6.443513,11.9397052 6.443513,11.9397052 6.443513,11.9397052 L7.41321,11.9397052 C7.6071494,11.9720284 7.76876553,12.1336446 7.8010888,12.327584 Z M14.3950282,7.47909917 L14.3950282,6.15384664 C14.3950282,5.99223044 14.4919979,5.8629375 14.6212908,5.7982911 L16.5283615,4.92556377 C16.6253312,4.8609173 16.7546241,4.8609173 16.8839171,4.8609173 L17.9505837,4.8609173 C18.1768463,4.8609173 18.3707857,5.0548567 18.3707857,5.28111937 L18.3707857,14.7195032 C18.3707857,14.9457658 18.1768463,15.1397052 17.9505837,15.1397052 L16.8515938,15.1397052 C16.6253312,15.1397052 16.4313918,14.9457658 16.4313918,14.7195032 L16.4313918,7.28515977 L14.9445231,7.8346547 C14.7505837,7.93162444 14.4919979,7.8023315 14.4273514,7.6083921 C14.3950282,7.57606884 14.3950282,7.51142237 14.3950282,7.47909917 Z" id="形状结合" fill="#FFFFFF"></path>
        </g>
    </g>
</svg>